<svg xmlns="http://www.w3.org/2000/svg" width="240" height="240" viewBox="0 0 240 240">
  <circle cx="120" cy="120" r="110" fill="#B87333" opacity="0.1"/>
  <path d="M120 40C75.8 40 40 75.8 40 120s35.8 80 80 80 80-35.8 80-80S164.2 40 120 40zm0 150c-38.7 0-70-31.3-70-70s31.3-70 70-70 70 31.3 70 70-31.3 70-70 70z" fill="#B87333"/>
  <path d="M120 80c-22.1 0-40 17.9-40 40s17.9 40 40 40 40-17.9 40-40-17.9-40-40-40zm0 70c-16.5 0-30-13.5-30-30s13.5-30 30-30 30 13.5 30 30-13.5 30-30 30z" fill="#FFD700"/>
  <path d="M120 100c-11 0-20 9-20 20s9 20 20 20 20-9 20-20-9-20-20-20zm0 30c-5.5 0-10-4.5-10-10s4.5-10 10-10 10 4.5 10 10-4.5 10-10 10z" fill="#B87333"/>
</svg>
