<svg xmlns="http://www.w3.org/2000/svg" width="240" height="240" viewBox="0 0 240 240">
  <circle cx="120" cy="120" r="110" fill="#B87333" opacity="0.1"/>
  <path d="M120 40c-44.1 0-80 35.9-80 80s35.9 80 80 80 80-35.9 80-80-35.9-80-80-80zm0 150c-38.7 0-70-31.3-70-70s31.3-70 70-70 70 31.3 70 70-31.3 70-70 70z" fill="#B87333"/>
  <path d="M165 95c-1.9-1.9-5.1-1.9-7 0l-48 48-28-28c-1.9-1.9-5.1-1.9-7 0-1.9 1.9-1.9 5.1 0 7l31.5 31.5c1 1 2.2 1.5 3.5 1.5s2.6-.5 3.5-1.5l51.5-51.5c1.9-1.9 1.9-5.1 0-7z" fill="#FFD700"/>
  <path d="M120 80c-22.1 0-40 17.9-40 40s17.9 40 40 40 40-17.9 40-40-17.9-40-40-40zm0 70c-16.5 0-30-13.5-30-30s13.5-30 30-30 30 13.5 30 30-13.5 30-30 30z" fill="#B87333" opacity="0.4"/>
</svg>
