<?xml version="1.0" encoding="UTF-8"?>
<svg width="920px" height="720px" viewBox="0 0 920 720" version="1.1" xmlns="http://www.w3.org/2000/svg">
    <style>
        text {
            font-family: 'Inter', 'Arial', sans-serif;
            fill: #2E2E2E;
        }
        .title {
            font-size: 24px;
            font-weight: bold;
            fill: #B87333;
        }
        .subtitle {
            font-size: 18px;
            font-weight: bold;
            fill: #B87333;
        }
        .module-box {
            fill: #FFF9E6;
            stroke: #B87333;
            stroke-width: 2;
            rx: 10;
            ry: 10;
        }
        .config-box {
            fill: #F0F8FF;
            stroke: #FFD700;
            stroke-width: 2;
            rx: 10;
            ry: 10;
        }
        .feature-box {
            fill: white;
            stroke: #B87333;
            stroke-width: 2;
            rx: 10;
            ry: 10;
        }
        .arrow {
            stroke: #B87333;
            stroke-width: 2;
            fill: none;
            marker-end: url(#arrowhead);
        }
        .bidirectional {
            stroke: #B87333;
            stroke-width: 2;
            fill: none;
            marker-end: url(#arrowhead);
            marker-start: url(#arrowhead);
        }
        .label {
            font-size: 14px;
            text-anchor: middle;
        }
    </style>
    
    <defs>
        <marker id="arrowhead" markerWidth="10" markerHeight="7" refX="9" refY="3.5" orient="auto">
            <polygon points="0 0, 10 3.5, 0 7" fill="#B87333" />
        </marker>
    </defs>
    
    <rect width="100%" height="100%" fill="#F8F9FA" />
    
    <text x="460" y="40" class="title" text-anchor="middle">Architecture de l'Application GBC CoachIA</text>
    <text x="460" y="70" text-anchor="middle">Vue d'ensemble des modules</text>
    
    <!-- Module Configuration -->
    <rect x="350" y="100" width="220" height="100" class="config-box" />
    <text x="460" y="130" class="subtitle" text-anchor="middle">Configuration</text>
    <text x="460" y="160" text-anchor="middle">Service Locator (DI)</text>
    <text x="460" y="180" text-anchor="middle">Router</text>
    
    <!-- Module Dashboard -->
    <rect x="100" y="250" width="180" height="80" class="feature-box" />
    <text x="190" y="290" class="subtitle" text-anchor="middle">Dashboard</text>
    
    <!-- Module ChatAI -->
    <rect x="320" y="250" width="180" height="80" class="feature-box" />
    <text x="410" y="290" class="subtitle" text-anchor="middle">Assistant IA</text>
    
    <!-- Module Planner -->
    <rect x="540" y="250" width="180" height="80" class="feature-box" />
    <text x="630" y="290" class="subtitle" text-anchor="middle">Planning</text>
    
    <!-- Module Finance -->
    <rect x="100" y="380" width="180" height="80" class="feature-box" />
    <text x="190" y="420" class="subtitle" text-anchor="middle">Finance</text>
    
    <!-- Module Documents -->
    <rect x="320" y="380" width="180" height="80" class="feature-box" />
    <text x="410" y="420" class="subtitle" text-anchor="middle">Documents</text>
    
    <!-- Module Storage -->
    <rect x="540" y="380" width="180" height="80" class="feature-box" />
    <text x="630" y="420" class="subtitle" text-anchor="middle">Stockage</text>
    
    <!-- Module Settings -->
    <rect x="320" y="510" width="180" height="80" class="module-box" />
    <text x="410" y="550" class="subtitle" text-anchor="middle">Paramètres</text>
    
    <!-- Flèches depuis Configuration -->
    <path d="M 350 150 L 190 250" class="arrow" />
    <path d="M 460 200 L 460 250" class="arrow" />
    <path d="M 570 150 L 630 250" class="arrow" />
    <path d="M 350 150 L 190 380" class="arrow" />
    <path d="M 460 200 L 460 380" class="arrow" />
    <path d="M 570 150 L 630 380" class="arrow" />
    <path d="M 460 200 L 460 510" class="arrow" />
    
    <!-- Flèches entre modules -->
    <!-- ChatAI -> Documents -->
    <path d="M 410 330 L 410 380" class="arrow" />
    <text x="425" y="355" class="label">génère</text>
    
    <!-- Documents -> Storage -->
    <path d="M 500 420 L 540 420" class="arrow" />
    <text x="520" y="405" class="label">stocke</text>
    
    <!-- Bidirectional entre Settings et autres modules -->
    <path d="M 320 550 L 190 460" class="bidirectional" />
    <path d="M 410 510 L 410 460" class="bidirectional" />
    <path d="M 500 550 L 630 460" class="bidirectional" />
    <path d="M 320 530 L 190 330" class="bidirectional" />
    <path d="M 500 530 L 630 330" class="bidirectional" />
    
    <!-- Légende -->
    <rect x="700" y="600" width="20" height="20" class="config-box" />
    <text x="730" y="615" text-anchor="start">Configuration centrale</text>
    
    <rect x="700" y="630" width="20" height="20" class="feature-box" />
    <text x="730" y="645" text-anchor="start">Modules fonctionnels</text>
    
    <rect x="700" y="660" width="20" height="20" class="module-box" />
    <text x="730" y="675" text-anchor="start">Module de paramètres</text>
</svg>
