<?xml version="1.0" encoding="UTF-8" standalone="no"?>
<svg width="375" height="812" viewBox="0 0 375 812" fill="none" xmlns="http://www.w3.org/2000/svg">
  <!-- Fond -->
  <rect width="375" height="812" fill="#F5F5F5"/>
  
  <!-- App Bar -->
  <rect width="375" height="64" fill="#B87333"/>
  <text x="16" y="40" font-family="Inter" font-size="18" font-weight="600" fill="white">GBC CoachIA</text>
  <circle cx="345" cy="32" r="18" fill="#B87333"/>
  <path d="M345 18C342 18 339.5 18.8 337.5 20.2C335.4 21.7 333.8 23.7 332.9 26.2C332 28.6 331.8 31.3 332.3 33.9C332.8 36.4 334 38.7 335.8 40.5C337.6 42.3 339.9 43.5 342.4 44C345 44.5 347.6 44.3 350.1 43.4C352.5 42.5 354.6 40.9 356 38.8C357.5 36.7 358.2 34.2 358.2 31.7C358.2 28.3 356.9 25.1 354.5 22.7C352.1 20.3 348.9 18.9 345.5 19L345 18Z" fill="#B87333" stroke="white" stroke-width="1.5"/>
  <circle cx="345" cy="26" r="2" fill="white"/>
  <rect x="342" y="30" width="6" height="8" rx="2" fill="white"/>
  <circle cx="345" cy="22" r="6" stroke="white" stroke-width="1.5" fill="none"/>
  
  <!-- Badge de notification -->
  <circle cx="355" cy="22" r="8" fill="#FF4136"/>
  <text x="355" y="26" font-family="Inter" font-size="10" font-weight="bold" fill="white" text-anchor="middle">3</text>
  
  <!-- Bannière de bienvenue -->
  <rect x="16" y="76" width="343" height="90" rx="8" fill="white" stroke="#E0E0E0" stroke-width="1"/>
  <circle cx="41" cy="106" r="25" fill="#B87333"/>
  <path d="M41 95C38 95 35 96.5 33 99C31 101.5 30 105 30 108.5C30 112 31 115.5 33 118C35 120.5 38 122 41 122C44 122 47 120.5 49 118C51 115.5 52 112 52 108.5C52 105 51 101.5 49 99C47 96.5 44 95 41 95Z" fill="#B87333"/>
  <path d="M36 103C39 108 43 107 46 103" stroke="white" stroke-width="1.5" fill="none"/>
  <circle cx="37" cy="99" r="2" fill="white"/>
  <circle cx="45" cy="99" r="2" fill="white"/>
  <text x="77" y="101" font-family="Inter" font-size="18" font-weight="600" fill="#333333">Bonjour, Sophie</text>
  <text x="77" y="119" font-family="Inter" font-size="14" fill="#757575">4 avril 2025</text>
  <text x="77" y="146" font-family="Inter" font-size="14" font-weight="500" fill="#333333">Que souhaitez-vous faire aujourd'hui ?</text>
  
  <!-- Résumé de productivité -->
  <text x="16" y="186" font-family="Inter" font-size="16" font-weight="600" fill="#333333">Résumé de productivité</text>
  <rect x="16" y="196" width="343" height="140" rx="8" fill="white" stroke="#E0E0E0" stroke-width="1"/>
  <text x="30" y="216" font-family="Inter" font-size="14" font-weight="600" fill="#333333">Activité hebdomadaire</text>
  
  <!-- Graphique barres d'activité -->
  <rect x="40" y="226" width="16" height="80" rx="8" fill="#B8733333"/>
  <rect x="40" y="270" width="16" height="36" rx="8" fill="#B87333"/>
  <text x="48" y="320" font-family="Inter" font-size="12" fill="#757575" text-anchor="middle">Lun</text>
  
  <rect x="76" y="226" width="16" height="80" rx="8" fill="#B8733333"/>
  <rect x="76" y="286" width="16" height="20" rx="8" fill="#B87333"/>
  <text x="84" y="320" font-family="Inter" font-size="12" fill="#757575" text-anchor="middle">Mar</text>
  
  <rect x="112" y="226" width="16" height="80" rx="8" fill="#B8733333"/>
  <rect x="112" y="246" width="16" height="60" rx="8" fill="#B87333"/>
  <text x="120" y="320" font-family="Inter" font-size="12" fill="#757575" text-anchor="middle">Mer</text>
  
  <rect x="148" y="226" width="16" height="80" rx="8" fill="#B8733333"/>
  <rect x="148" y="254" width="16" height="52" rx="8" fill="#B87333"/>
  <text x="156" y="320" font-family="Inter" font-size="12" fill="#B87333" font-weight="bold" text-anchor="middle">Jeu</text>
  
  <rect x="184" y="226" width="16" height="80" rx="8" fill="#EEEEEE"/>
  <text x="192" y="320" font-family="Inter" font-size="12" fill="#757575" text-anchor="middle">Ven</text>
  
  <rect x="220" y="226" width="16" height="80" rx="8" fill="#EEEEEE"/>
  <text x="228" y="320" font-family="Inter" font-size="12" fill="#757575" text-anchor="middle">Sam</text>
  
  <rect x="256" y="226" width="16" height="80" rx="8" fill="#EEEEEE"/>
  <text x="264" y="320" font-family="Inter" font-size="12" fill="#757575" text-anchor="middle">Dim</text>
  
  <!-- Aperçu rapide -->
  <text x="16" y="356" font-family="Inter" font-size="16" font-weight="600" fill="#333333">Aperçu rapide</text>
  
  <!-- Statistiques (grille 2x2) -->
  <rect x="16" y="366" width="164" height="90" rx="8" fill="white" stroke="#E0E0E0" stroke-width="1"/>
  <path d="M40 386C38.9 386 38 385.1 38 384C38 382.9 38.9 382 40 382C41.1 382 42 382.9 42 384C42 385.1 41.1 386 40 386ZM40 388C41.7 388 45 388.9 45 390.5V392H35V390.5C35 388.9 38.3 388 40 388ZM50 388H47.7C47.4 387.4 47 386.8 46.5 386.3C47.2 385.9 48.1 385.5 49 385.5C50.7 385.5 52 386.8 52 388.5V390H50V388ZM44 384C44 381.8 42.2 380 40 380C37.8 380 36 381.8 36 384C36 386.2 37.8 388 40 388C42.2 388 44 386.2 44 384ZM49 383.5C47.6 383.5 46 384.1 46 385.5C46 385.9 46.1 386.3 46.3 386.6C47.1 387.5 48.1 388 49 388C50.7 388 52 386.7 52 385C52 384.1 50.8 383.5 49 383.5Z" fill="#B87333"/>
  <text x="55" y="386" font-family="Inter" font-size="14" font-weight="500" fill="#333333">Tâches</text>
  <text x="32" y="422" font-family="Inter" font-size="24" font-weight="bold" fill="#B87333">5/8</text>
  <text x="32" y="442" font-family="Inter" font-size="12" fill="#757575">à faire aujourd'hui</text>
  
  <rect x="195" y="366" width="164" height="90" rx="8" fill="white" stroke="#E0E0E0" stroke-width="1"/>
  <path d="M216 386H214V382H216V386ZM216 390H214V388H216V390ZM224 378H218V376H224V378ZM224 382H218V380H224V382ZM224 386H218V384H224V386ZM224 390H218V388H224V390ZM210 392C208.9 392 208 391.1 208 390V378C208 376.9 208.9 376 210 376H216V374H210C207.8 374 206 375.8 206 378V390C206 392.2 207.8 394 210 394H216V392H210ZM226 374H220V376H226C227.1 376 228 376.9 228 378V390C228 391.1 227.1 392 226 392H220V394H226C228.2 394 230 392.2 230 390V378C230 375.8 228.2 374 226 374Z" fill="#4CAF50"/>
  <text x="235" y="386" font-family="Inter" font-size="14" font-weight="500" fill="#333333">Finances</text>
  <text x="212" y="422" font-family="Inter" font-size="24" font-weight="bold" fill="#4CAF50">5 240 €</text>
  <text x="212" y="442" font-family="Inter" font-size="12" fill="#757575">revenus ce mois</text>
  
  <rect x="16" y="470" width="164" height="90" rx="8" fill="white" stroke="#E0E0E0" stroke-width="1"/>
  <path d="M36 490H44V482H36V490ZM36 498H44V492H36V498ZM46 490H54V482H46V490ZM46 498H54V492H46V498ZM36 480H44V472H36V480ZM46 480H54V472H46V480Z" fill="#FF9800"/>
  <text x="55" y="490" font-family="Inter" font-size="14" font-weight="500" fill="#333333">Documents</text>
  <text x="32" y="526" font-family="Inter" font-size="24" font-weight="bold" fill="#FF9800">3</text>
  <text x="32" y="546" font-family="Inter" font-size="12" fill="#757575">en attente de signature</text>
  
  <rect x="195" y="470" width="164" height="90" rx="8" fill="white" stroke="#E0E0E0" stroke-width="1"/>
  <path d="M220 490L224 494L228 490L220 482L212 490L216 494L220 490ZM212 494L220 502L228 494L224 490L220 494L216 490L212 494Z" fill="#2196F3"/>
  <text x="235" y="490" font-family="Inter" font-size="14" font-weight="500" fill="#333333">Productivité</text>
  <text x="212" y="526" font-family="Inter" font-size="24" font-weight="bold" fill="#2196F3">75%</text>
  <text x="212" y="546" font-family="Inter" font-size="12" fill="#757575">objectifs atteints</text>
  
  <!-- Prochains événements -->
  <text x="16" y="580" font-family="Inter" font-size="16" font-weight="600" fill="#333333">Prochains événements</text>
  <rect x="16" y="590" width="343" height="136" rx="8" fill="white" stroke="#E0E0E0" stroke-width="1"/>
  
  <text x="36" y="612" font-family="Inter" font-size="12" font-weight="bold" fill="#B87333">AUJ</text>
  <text x="36" y="628" font-family="Inter" font-size="12" fill="#757575">15:00</text>
  <text x="76" y="616" font-family="Inter" font-size="14" font-weight="500" fill="#333333">Réunion avec Client Dupont</text>
  <text x="76" y="636" font-family="Inter" font-size="13" fill="#757575">Présentation de la proposition commerciale</text>
  <circle cx="340" cy="616" r="5" fill="#B87333"/>
  
  <line x1="16" y1="646" x2="359" y2="646" stroke="#E0E0E0"/>
  
  <text x="36" y="668" font-family="Inter" font-size="12" font-weight="bold" fill="#FF9800">DEM</text>
  <text x="36" y="684" font-family="Inter" font-size="12" fill="#757575">10:30</text>
  <text x="76" y="672" font-family="Inter" font-size="14" font-weight="500" fill="#333333">Livraison projet e-commerce</text>
  <text x="76" y="692" font-family="Inter" font-size="13" fill="#757575">Date limite pour la première version</text>
  <circle cx="340" cy="672" r="5" fill="#FF9800"/>
  
  <!-- Bottom Navigation Bar -->
  <rect y="742" width="375" height="70" fill="white"/>
  <line x1="0" y1="742" x2="375" y2="742" stroke="#E0E0E0"/>
  
  <!-- Icons en bas -->
  <path d="M56 772H46V762H56V772ZM76 772H66V762H76V772ZM56 752H46V742H56V752ZM76 752H66V742H76V752Z" fill="#B87333"/>
  <text x="62" y="792" font-family="Inter" font-size="12" fill="#B87333" font-weight="500" text-anchor="middle">Accueil</text>
  
  <path d="M136 756C133 756 130 757.5 128 760C126 762.5 125 766 125 769.5C125 773 126 776.5 128 779C130 781.5 133 783 136 783C139 783 142 781.5 144 779C146 776.5 147 773 147 769.5C147 766 146 762.5 144 760C142 757.5 139 756 136 756Z" fill="#757575"/>
  <path d="M131 764C134 769 138 768 141 764" stroke="white" stroke-width="1.5" fill="none"/>
  <circle cx="132" cy="760" r="2" fill="white"/>
  <circle cx="140" cy="760" r="2" fill="white"/>
  <text x="136" y="792" font-family="Inter" font-size="12" fill="#757575" text-anchor="middle">Coach IA</text>
  
  <rect x="208" y="760" width="16" height="16" rx="2" fill="#757575"/>
  <line x1="208" y1="756" x2="224" y2="756" stroke="#757575" stroke-width="2"/>
  <line x1="208" y1="780" x2="224" y2="780" stroke="#757575" stroke-width="2"/>
  <line x1="214" y1="760" x2="214" y2="764" stroke="white" stroke-width="2"/>
  <line x1="218" y1="760" x2="218" y2="764" stroke="white" stroke-width="2"/>
  <line x1="214" y1="768" x2="214" y2="772" stroke="white" stroke-width="2"/>
  <line x1="218" y1="768" x2="218" y2="772" stroke="white" stroke-width="2"/>
  <text x="216" y="792" font-family="Inter" font-size="12" fill="#757575" text-anchor="middle">Planner</text>
  
  <rect x="284" y="756" width="16" height="20" rx="2" fill="#757575"/>
  <rect x="288" y="760" width="8" height="16" fill="#757575" stroke="white"/>
  <line x1="288" y1="764" x2="296" y2="764" stroke="white"/>
  <line x1="288" y1="768" x2="296" y2="768" stroke="white"/>
  <line x1="288" y1="772" x2="296" y2="772" stroke="white"/>
  <text x="292" y="792" font-family="Inter" font-size="12" fill="#757575" text-anchor="middle">Documents</text>
  
  <circle cx="355" cy="766" r="10" fill="#757575"/>
  <circle cx="355" cy="760" r="4" fill="white"/>
  <path d="M345 772C345 767 350 764 355 764C360 764 365 767 365 772" fill="#757575" stroke="white" stroke-width="2"/>
  <text x="355" y="792" font-family="Inter" font-size="12" fill="#757575" text-anchor="middle">Profil</text>
  
  <!-- Bouton flottant -->
  <circle cx="320" cy="700" r="25" fill="#B87333"/>
  <path d="M320 692V708M312 700H328" stroke="white" stroke-width="2.5"/>
  <text x="320" y="721" font-family="Inter" font-size="10" fill="#757575" text-anchor="middle">Assistant</text>
</svg>
