<svg xmlns="http://www.w3.org/2000/svg" width="240" height="240" viewBox="0 0 240 240">
  <rect x="40" y="60" width="160" height="120" rx="10" fill="#B87333" opacity="0.1"/>
  <path d="M190 60H50c-5.5 0-10 4.5-10 10v100c0 5.5 4.5 10 10 10h140c5.5 0 10-4.5 10-10V70c0-5.5-4.5-10-10-10zm0 110H50V70h140v100z" fill="#B87333"/>
  <path d="M70 90c-5.5 0-10 4.5-10 10s4.5 10 10 10 10-4.5 10-10-4.5-10-10-10zm0 15c-2.8 0-5-2.2-5-5s2.2-5 5-5 5 2.2 5 5-2.2 5-5 5zM70 120c-5.5 0-10 4.5-10 10s4.5 10 10 10 10-4.5 10-10-4.5-10-10-10zm0 15c-2.8 0-5-2.2-5-5s2.2-5 5-5 5 2.2 5 5-2.2 5-5 5z" fill="#B87333"/>
  <rect x="90" y="90" width="100" height="10" rx="5" fill="#FFD700"/>
  <rect x="90" y="110" width="80" height="10" rx="5" fill="#FFD700"/>
  <rect x="90" y="130" width="60" height="10" rx="5" fill="#FFD700"/>
  <rect x="90" y="150" width="40" height="10" rx="5" fill="#FFD700"/>
</svg>
