<svg width="200" height="200" viewBox="0 0 200 200" fill="none" xmlns="http://www.w3.org/2000/svg">
  <!-- Background Circle -->
  <circle cx="100" cy="100" r="90" fill="#FFFDD0"/>
  
  <!-- Outer Ring -->
  <circle cx="100" cy="100" r="85" stroke="#B87333" stroke-width="10" fill="none"/>
  
  <!-- Brain Icon (Left Hemisphere) -->
  <path d="M70 65C65 67 62 70 60 75C58 80 58 85 60 90C62 95 65 98 70 100C65 102 62 105 60 110C58 115 58 120 60 125C62 130 65 133 70 135" 
        stroke="#B87333" stroke-width="6" stroke-linecap="round" fill="none"/>
  
  <!-- Brain Icon (Right Hemisphere) -->
  <path d="M130 65C135 67 138 70 140 75C142 80 142 85 140 90C138 95 135 98 130 100C135 102 138 105 140 110C142 115 142 120 140 125C138 130 135 133 130 135" 
        stroke="#B87333" stroke-width="6" stroke-linecap="round" fill="none"/>
  
  <!-- Brain Connections -->
  <path d="M70 100H130" stroke="#B87333" stroke-width="6" stroke-linecap="round" fill="none"/>
  <path d="M70 80H130" stroke="#B87333" stroke-width="6" stroke-linecap="round" fill="none"/>
  <path d="M70 120H130" stroke="#B87333" stroke-width="6" stroke-linecap="round" fill="none"/>
  
  <!-- Golden Accent Dots -->
  <circle cx="70" cy="65" r="5" fill="#FFD700"/>
  <circle cx="130" cy="65" r="5" fill="#FFD700"/>
  <circle cx="70" cy="135" r="5" fill="#FFD700"/>
  <circle cx="130" cy="135" r="5" fill="#FFD700"/>
  
  <!-- Text: GBC -->
  <path d="M55 160C55 156.134 58.134 153 62 153H78C81.866 153 85 156.134 85 160V160C85 163.866 81.866 167 78 167H62C58.134 167 55 163.866 55 160V160Z" fill="#B87333"/>
  <text x="60" y="164" font-family="Arial, sans-serif" font-size="12" font-weight="bold" fill="white">GBC</text>
  
  <!-- Text: CoachIA -->
  <path d="M90 160C90 156.134 93.134 153 97 153H143C146.866 153 150 156.134 150 160V160C150 163.866 146.866 167 143 167H97C93.134 167 90 163.866 90 160V160Z" fill="#FFD700"/>
  <text x="95" y="164" font-family="Arial, sans-serif" font-size="12" font-weight="bold" fill="#2E2E2E">CoachIA</text>
</svg>
