<?xml version="1.0" encoding="UTF-8" standalone="no"?>
<svg width="800" height="1200" xmlns="http://www.w3.org/2000/svg">
  <!-- Background -->
  <rect width="800" height="1200" fill="#ffffff"/>
  
  <!-- Phone Frame -->
  <rect x="200" y="100" width="400" height="800" rx="40" ry="40" fill="#f0f0f0" stroke="#333333" stroke-width="10"/>
  <rect x="210" y="110" width="380" height="780" rx="36" ry="36" fill="#ffffff"/>
  
  <!-- Status Bar -->
  <rect x="210" y="110" width="380" height="40" fill="#B87333"/>
  <text x="400" y="135" font-family="Inter, sans-serif" font-size="14" text-anchor="middle" fill="#ffffff">13:37</text>
  
  <!-- App Bar with GBC CoachIA Title -->
  <rect x="210" y="150" width="380" height="60" fill="#B87333"/>
  <text x="250" y="188" font-family="Inter, sans-serif" font-size="24" font-weight="bold" fill="#ffffff">GBC CoachIA</text>
  
  <!-- Drawer Menu Icon -->
  <rect x="550" y="170" width="24" height="3" fill="#ffffff"/>
  <rect x="550" y="178" width="24" height="3" fill="#ffffff"/>
  <rect x="550" y="186" width="24" height="3" fill="#ffffff"/>
  
  <!-- Main Content Area -->
  <rect x="210" y="210" width="380" height="620" fill="#ffffff"/>
  
  <!-- Dashboard Cards with App Brand Colors -->
  <!-- Quick Actions Card -->
  <rect x="230" y="230" width="340" height="120" rx="10" ry="10" fill="#f8f8f8" stroke="#B87333" stroke-width="2"/>
  <text x="250" y="260" font-family="Inter, sans-serif" font-size="16" font-weight="bold" fill="#333333">Actions Rapides</text>
  
  <!-- Quick Action Buttons -->
  <circle cx="270" cy="300" r="25" fill="#B87333"/>
  <text x="270" y="305" font-family="Inter, sans-serif" font-size="14" text-anchor="middle" fill="#ffffff">Chat</text>
  
  <circle cx="340" cy="300" r="25" fill="#FFD700"/>
  <text x="340" y="305" font-family="Inter, sans-serif" font-size="14" text-anchor="middle" fill="#333333">Plan</text>
  
  <circle cx="410" cy="300" r="25" fill="#B87333"/>
  <text x="410" y="305" font-family="Inter, sans-serif" font-size="14" text-anchor="middle" fill="#ffffff">Fin</text>
  
  <circle cx="480" cy="300" r="25" fill="#FFD700"/>
  <text x="480" y="305" font-family="Inter, sans-serif" font-size="14" text-anchor="middle" fill="#333333">Doc</text>
  
  <!-- Upcoming Tasks Card -->
  <rect x="230" y="370" width="340" height="180" rx="10" ry="10" fill="#f8f8f8" stroke="#B87333" stroke-width="2"/>
  <text x="250" y="400" font-family="Inter, sans-serif" font-size="16" font-weight="bold" fill="#333333">Tâches à venir</text>
  
  <!-- Task Items -->
  <rect x="250" y="420" width="300" height="40" rx="5" ry="5" fill="#ffffff" stroke="#B87333" stroke-width="1"/>
  <text x="270" y="445" font-family="Inter, sans-serif" font-size="14" fill="#333333">Réunion client - 14:00</text>
  
  <rect x="250" y="470" width="300" height="40" rx="5" ry="5" fill="#ffffff" stroke="#B87333" stroke-width="1"/>
  <text x="270" y="495" font-family="Inter, sans-serif" font-size="14" fill="#333333">Préparation proposition - 16:30</text>
  
  <rect x="250" y="520" width="300" height="40" rx="5" ry="5" fill="#ffffff" stroke="#FFD700" stroke-width="1"/>
  <text x="270" y="545" font-family="Inter, sans-serif" font-size="14" fill="#333333">Suivre facture #2023-15</text>
  
  <!-- Financial Summary Card -->
  <rect x="230" y="570" width="340" height="150" rx="10" ry="10" fill="#f8f8f8" stroke="#B87333" stroke-width="2"/>
  <text x="250" y="600" font-family="Inter, sans-serif" font-size="16" font-weight="bold" fill="#333333">Aperçu Financier</text>
  
  <!-- Financial Summary Graphics -->
  <rect x="250" y="620" width="140" height="80" rx="5" ry="5" fill="#ffffff" stroke="#B87333" stroke-width="1"/>
  <text x="320" y="650" font-family="Inter, sans-serif" font-size="14" text-anchor="middle" fill="#333333">Revenus</text>
  <text x="320" y="680" font-family="Inter, sans-serif" font-size="20" font-weight="bold" text-anchor="middle" fill="#B87333">€ 5,230</text>
  
  <rect x="410" y="620" width="140" height="80" rx="5" ry="5" fill="#ffffff" stroke="#FFD700" stroke-width="1"/>
  <text x="480" y="650" font-family="Inter, sans-serif" font-size="14" text-anchor="middle" fill="#333333">Dépenses</text>
  <text x="480" y="680" font-family="Inter, sans-serif" font-size="20" font-weight="bold" text-anchor="middle" fill="#FFD700">€ 2,175</text>
  
  <!-- Documents Section (New) -->
  <rect x="230" y="740" width="340" height="70" rx="10" ry="10" fill="#f8f8f8" stroke="#B87333" stroke-width="2"/>
  <text x="250" y="770" font-family="Inter, sans-serif" font-size="16" font-weight="bold" fill="#333333">Documents Récents</text>
  <text x="250" y="795" font-family="Inter, sans-serif" font-size="14" fill="#666666">Contrat_Client_2023.pdf</text>
  
  <!-- Bottom Navigation Bar -->
  <rect x="210" y="830" width="380" height="60" fill="#f0f0f0"/>
  
  <!-- Navigation Icons -->
  <circle cx="267" cy="860" r="20" fill="#ffffff" stroke="#B87333" stroke-width="2"/>
  <text x="267" y="865" font-family="Inter, sans-serif" font-size="12" text-anchor="middle" fill="#B87333">Dashboard</text>
  
  <circle cx="343" cy="860" r="20" fill="#ffffff" stroke="#B87333" stroke-width="2"/>
  <text x="343" y="865" font-family="Inter, sans-serif" font-size="12" text-anchor="middle" fill="#B87333">Chatbot</text>
  
  <circle cx="419" cy="860" r="20" fill="#ffffff" stroke="#B87333" stroke-width="2"/>
  <text x="419" y="865" font-family="Inter, sans-serif" font-size="12" text-anchor="middle" fill="#B87333">Planner</text>
  
  <circle cx="495" cy="860" r="20" fill="#B87333" stroke="#B87333" stroke-width="2"/>
  <text x="495" y="865" font-family="Inter, sans-serif" font-size="12" text-anchor="middle" fill="#ffffff">Documents</text>
  
  <!-- Document Page (When Documents Tab is Selected) -->
  <rect x="620" y="100" width="400" height="800" rx="40" ry="40" fill="#f0f0f0" stroke="#333333" stroke-width="10"/>
  <rect x="630" y="110" width="380" height="780" rx="36" ry="36" fill="#ffffff"/>
  
  <!-- Status Bar for Document Page -->
  <rect x="630" y="110" width="380" height="40" fill="#B87333"/>
  <text x="820" y="135" font-family="Inter, sans-serif" font-size="14" text-anchor="middle" fill="#ffffff">13:37</text>
  
  <!-- App Bar with Documents Title -->
  <rect x="630" y="150" width="380" height="60" fill="#B87333"/>
  <text x="670" y="188" font-family="Inter, sans-serif" font-size="24" font-weight="bold" fill="#ffffff">Documents</text>
  
  <!-- Back Button -->
  <path d="M650,180 L665,165 L665,175 L680,175 L680,185 L665,185 L665,195 Z" fill="#ffffff"/>
  
  <!-- Documents Content Area -->
  <rect x="630" y="210" width="380" height="620" fill="#ffffff"/>
  
  <!-- Document Categories -->
  <rect x="650" y="230" width="340" height="50" rx="10" ry="10" fill="#f8f8f8" stroke="#B87333" stroke-width="2"/>
  <text x="700" y="260" font-family="Inter, sans-serif" font-size="16" fill="#333333">Contrats</text>
  <circle cx="670" cy="255" r="15" fill="#B87333"/>
  <text x="670" y="260" font-family="Inter, sans-serif" font-size="14" text-anchor="middle" fill="#ffffff">C</text>
  
  <rect x="650" y="290" width="340" height="50" rx="10" ry="10" fill="#f8f8f8" stroke="#B87333" stroke-width="2"/>
  <text x="700" y="320" font-family="Inter, sans-serif" font-size="16" fill="#333333">Factures</text>
  <circle cx="670" cy="315" r="15" fill="#FFD700"/>
  <text x="670" y="320" font-family="Inter, sans-serif" font-size="14" text-anchor="middle" fill="#333333">F</text>
  
  <rect x="650" y="350" width="340" height="50" rx="10" ry="10" fill="#f8f8f8" stroke="#B87333" stroke-width="2"/>
  <text x="700" y="380" font-family="Inter, sans-serif" font-size="16" fill="#333333">Propositions</text>
  <circle cx="670" cy="375" r="15" fill="#B87333"/>
  <text x="670" y="380" font-family="Inter, sans-serif" font-size="14" text-anchor="middle" fill="#ffffff">P</text>
  
  <rect x="650" y="410" width="340" height="50" rx="10" ry="10" fill="#f8f8f8" stroke="#B87333" stroke-width="2"/>
  <text x="700" y="440" font-family="Inter, sans-serif" font-size="16" fill="#333333">Rapports</text>
  <circle cx="670" cy="435" r="15" fill="#FFD700"/>
  <text x="670" y="440" font-family="Inter, sans-serif" font-size="14" text-anchor="middle" fill="#333333">R</text>
  
  <!-- Recent Documents -->
  <text x="650" y="490" font-family="Inter, sans-serif" font-size="18" font-weight="bold" fill="#333333">Documents Récents</text>
  
  <!-- Document Items -->
  <rect x="650" y="510" width="340" height="60" rx="5" ry="5" fill="#ffffff" stroke="#B87333" stroke-width="1"/>
  <text x="680" y="535" font-family="Inter, sans-serif" font-size="16" fill="#333333">Contrat_Client_2023.pdf</text>
  <text x="680" y="555" font-family="Inter, sans-serif" font-size="12" fill="#666666">Contrats • Modifié le 01/04/2025</text>
  
  <rect x="650" y="580" width="340" height="60" rx="5" ry="5" fill="#ffffff" stroke="#B87333" stroke-width="1"/>
  <text x="680" y="605" font-family="Inter, sans-serif" font-size="16" fill="#333333">Facture_2023-15.pdf</text>
  <text x="680" y="625" font-family="Inter, sans-serif" font-size="12" fill="#666666">Factures • Modifié le 28/03/2025</text>
  
  <rect x="650" y="650" width="340" height="60" rx="5" ry="5" fill="#ffffff" stroke="#B87333" stroke-width="1"/>
  <text x="680" y="675" font-family="Inter, sans-serif" font-size="16" fill="#333333">Proposition_Projet_X.docx</text>
  <text x="680" y="695" font-family="Inter, sans-serif" font-size="12" fill="#666666">Propositions • Modifié le 25/03/2025</text>
  
  <!-- Create New Document Button -->
  <circle cx="820" cy="760" r="30" fill="#B87333"/>
  <text x="820" y="765" font-family="Inter, sans-serif" font-size="24" text-anchor="middle" fill="#ffffff">+</text>
  
  <!-- Bottom Navigation Bar for Documents Page -->
  <rect x="630" y="830" width="380" height="60" fill="#f0f0f0"/>
  
  <!-- Navigation Icons for Documents Page -->
  <circle cx="687" cy="860" r="20" fill="#ffffff" stroke="#B87333" stroke-width="2"/>
  <text x="687" y="865" font-family="Inter, sans-serif" font-size="12" text-anchor="middle" fill="#B87333">Dashboard</text>
  
  <circle cx="763" cy="860" r="20" fill="#ffffff" stroke="#B87333" stroke-width="2"/>
  <text x="763" y="865" font-family="Inter, sans-serif" font-size="12" text-anchor="middle" fill="#B87333">Chatbot</text>
  
  <circle cx="839" cy="860" r="20" fill="#ffffff" stroke="#B87333" stroke-width="2"/>
  <text x="839" y="865" font-family="Inter, sans-serif" font-size="12" text-anchor="middle" fill="#B87333">Planner</text>
  
  <circle cx="915" cy="860" r="20" fill="#B87333" stroke="#B87333" stroke-width="2"/>
  <text x="915" y="865" font-family="Inter, sans-serif" font-size="12" text-anchor="middle" fill="#ffffff">Documents</text>
  
  <!-- Title -->
  <text x="400" y="50" font-family="Inter, sans-serif" font-size="24" font-weight="bold" text-anchor="middle" fill="#B87333">GBC CoachIA - Thème avec Nouvelles Couleurs</text>
  <text x="400" y="80" font-family="Inter, sans-serif" font-size="16" text-anchor="middle" fill="#333333">Dashboard et Nouvel Onglet Documents</text>
  
  <!-- Legend -->
  <rect x="200" y="920" width="20" height="20" fill="#B87333"/>
  <text x="230" y="935" font-family="Inter, sans-serif" font-size="14" fill="#333333">Cuivre/Bronze (B87333) - Couleur Principale</text>
  
  <rect x="200" y="950" width="20" height="20" fill="#FFD700"/>
  <text x="230" y="965" font-family="Inter, sans-serif" font-size="14" fill="#333333">Or (FFD700) - Couleur Secondaire</text>
  
  <rect x="500" y="920" width="20" height="20" fill="#ffffff" stroke="#B87333" stroke-width="2"/>
  <text x="530" y="935" font-family="Inter, sans-serif" font-size="14" fill="#333333">Contour Principal</text>
  
  <rect x="500" y="950" width="20" height="20" fill="#ffffff" stroke="#FFD700" stroke-width="2"/>
  <text x="530" y="965" font-family="Inter, sans-serif" font-size="14" fill="#333333">Contour Secondaire</text>
</svg>
